<?xml version="1.0" encoding="UTF-8"?><svg xmlns="http://www.w3.org/2000/svg" xmlns:xlink="http://www.w3.org/1999/xlink" viewBox="0 0 512 512"><defs><style>.e{fill:#fff;}.f{fill:url(#d);}</style><linearGradient id="d" x1="256" y1="256" x2="256" y2="-273.92" gradientTransform="matrix(1, 0, 0, 1, 0, 0)" gradientUnits="userSpaceOnUse"><stop offset="0" stop-color="#4573b7"/><stop offset=".59" stop-color="#385b8e"/></linearGradient></defs><g id="a"/><g id="b"><g id="c"><g><rect class="f" width="512" height="512"/><g><path class="e" d="M168,228.52c-40.84,0-73.95,33.11-73.95,73.95s33.11,73.94,73.95,73.94,73.94-33.09,73.94-73.94-33.11-73.95-73.94-73.95m0,101.51c-22.32,0-40.43-17.12-40.43-38.25s18.1-38.26,40.43-38.26,40.41,17.13,40.41,38.26-18.09,38.25-40.41,38.25"/><path class="e" d="M328.48,228.52c-40.84,0-73.95,33.11-73.95,73.95s33.11,73.94,73.95,73.94,73.94-33.09,73.94-73.94-33.11-73.95-73.94-73.95m0,117.81c-22.32,0-40.43-17.12-40.43-38.25s18.1-38.26,40.43-38.26,40.41,17.13,40.41,38.26-18.09,38.25-40.41,38.25"/><path class="e" d="M419.64,222.5c-.16,.56-.3,1.09-.5,1.65-.07,.39-.2,.72-.3,1.09-.13,.45-.25,.9-.4,1.31-3.48,8.89-13.19,13.89-22.56,11.29-10.01-2.78-15.85-13.17-13.07-23.18,.1-.38,.21-.75,.34-1.08,.11-.25,.23-.54,.32-.84l.07-.26c1.14-4.1-.11-8.35-2.93-11.2-1.37-1.35-3.07-2.39-5.06-2.95-.41-.12-.84-.19-1.23-.26-4.29-.75-8.53,1.08-11.02,4.48-.13,.17-.26,.33-.38,.5-.14,.2-.32,.44-.44,.69l-1.24,1.84-9.57,14.13c-1.1,1.64-3.32,2.04-4.96,.93l-14.26-9.68-2.09-1.39-.27-.2-14.54-9.84c-1.64-1.1-2.05-3.29-.94-4.93l13.8-20.34,3.47-5.2,.18-.19c4.37-5.8,9.28-10.32,14.35-13.13,1.78-1.01,3.58-1.8,5.4-2.35,.54-.18,1.06-.31,1.62-.44,.17-.03,.31-.08,.48-.11,.25-.01,.5-.06,.72-.12,.12,0,.25-.01,.34-.07,.59-.08,1.17-.12,1.75-.16,.09-.02,.12,0,.21-.02,.26-.05,.54-.05,.83-.05,8.3-.69,17.02,.07,25.71,2.48,6.66,1.85,12.81,4.53,18.38,7.87,6.47,3.87,12.09,8.59,16.72,13.97,.41,.44,.77,.86,1.13,1.33,.18,.21,.36,.46,.57,.73,1.71,2.46,2.86,5.34,3.23,8.36,.08,.59,.11,1.21,.14,1.82,.6,9.82-.65,21.44-4,33.52Z"/><path class="e" d="M189.7,188.82c-.26,.15-.53,.3-.83,.42l-2.08,.91-22.88,9.89c-3.56,1.55-7.73-.08-9.24-3.64l-.42-.99-4.85-11.14c-.15-.49-.38-.99-.61-1.44l-.04-.04c-1.7-3.18-4.85-5.42-8.52-5.87-.49-.08-.95-.11-1.44-.11-3.94,0-7.39,2.01-9.47,5.08v.04c-1.21,1.82-1.93,3.98-1.93,6.36,0,.19,0,.34,.04,.53,0,.99,.19,1.89,.45,2.77,.08,.61,.11,1.21,.11,1.86,0,7.5-4.21,13.98-10.38,17.2-.49,.26-1.02,.49-1.55,.72-2.2,.91-4.62,1.4-7.2,1.4s-5.19-.53-7.5-1.52c-4.77-2.05-8.52-5.99-10.38-10.91-.42-1.44-.8-2.95-1.1-4.43-1.1-4.89-1.67-10-1.67-15.23,0-2.2,.11-4.39,.3-6.52,.23-2.61,.61-5.15,1.1-7.69,0-.15,.04-.27,.08-.38,2.31-8.68,7.8-16.06,15.15-20.84,2.12-1.25,4.28-2.39,6.55-3.37,8.98-4.05,19.02-6.29,29.62-6.29,1.29,0,2.61,.04,3.86,.11h.45c3.67,.23,7.24,.72,10.72,1.44,12.65,3.37,23.07,12.35,28.34,24.09l.83,1.93c.11,.34,.27,.64,.38,.95l.3,.64,5.64,13.03,.95,2.2c1.44,3.26,.15,7.01-2.8,8.83Z"/></g></g></g></g></svg>